<?xml version="1.0" encoding="iso-8859-1"?>
<!-- Generator: Adobe Illustrator 19.0.0, SVG Export Plug-In . SVG Version: 6.00 Build 0)  -->
<svg version="1.1" id="Capa_1" xmlns="http://www.w3.org/2000/svg" xmlns:xlink="http://www.w3.org/1999/xlink" x="0px" y="0px"
	 viewBox="0 0 353.315 353.315" style="enable-background:new 0 0 353.315 353.315;" xml:space="preserve">
<g>
	<g id="Dibujo_38_">
		<g>
			<path d="M126.973,104.89h66.247c6.095,0,11.041-4.946,11.041-11.041c0-6.095-4.946-11.041-11.041-11.041h-66.247
				c-6.1,0-11.041,4.946-11.041,11.041C115.932,99.944,120.872,104.89,126.973,104.89z"/>
			<path d="M60.726,138.014h132.493c6.095,0,11.041-4.946,11.041-11.041s-4.946-11.041-11.041-11.041H60.726
				c-6.1,0-11.041,4.946-11.041,11.041S54.626,138.014,60.726,138.014z"/>
			<path d="M27.597,171.137h132.499c6.095,0,11.041-4.946,11.041-11.041c0-6.095-4.946-11.041-11.041-11.041H27.597
				c-6.1,0-11.041,4.946-11.041,11.041C16.556,166.191,21.497,171.137,27.597,171.137z"/>
			<path d="M353.315,193.219c0-6.095-4.946-11.041-11.041-11.041H11.041c-6.1,0-11.041,4.946-11.041,11.041
				s4.941,11.041,11.041,11.041h331.233C348.369,204.26,353.315,199.314,353.315,193.219z"/>
			<path d="M342.274,215.301H27.603c-6.1,0-11.041,4.946-11.041,11.041s4.941,11.041,11.041,11.041h314.671
				c6.095,0,11.041-4.946,11.041-11.041S348.369,215.301,342.274,215.301z"/>
			<path d="M126.973,248.425l-66.247-0.006c-6.1,0-11.041,4.946-11.041,11.041s4.941,11.041,11.041,11.041l66.247,0.005
				c6.095,0,11.041-4.946,11.041-11.041S133.067,248.425,126.973,248.425z"/>
			<path d="M231.863,138.014h44.164c6.095,0,11.041-4.946,11.041-11.041s-4.946-11.041-11.041-11.041h-44.164
				c-6.1,0-11.041,4.946-11.041,11.041S225.763,138.014,231.863,138.014z"/>
			<path d="M182.178,160.096c0,6.095,4.941,11.041,11.041,11.041h115.932c6.095,0,11.041-4.946,11.041-11.041
				c0-6.095-4.946-11.041-11.041-11.041H193.219C187.119,149.055,182.178,154.001,182.178,160.096z"/>
			<path d="M309.151,248.419l-149.055,0.006c-6.1,0-11.041,4.946-11.041,11.041s4.941,11.041,11.041,11.041l149.055-0.005
				c6.095,0,11.041-4.946,11.041-11.041S315.245,248.419,309.151,248.419z"/>
		</g>
	</g>
</g>
<g>
</g>
<g>
</g>
<g>
</g>
<g>
</g>
<g>
</g>
<g>
</g>
<g>
</g>
<g>
</g>
<g>
</g>
<g>
</g>
<g>
</g>
<g>
</g>
<g>
</g>
<g>
</g>
<g>
</g>
</svg>
