<?xml version="1.0" encoding="iso-8859-1"?>
<!-- Generator: Adobe Illustrator 19.0.0, SVG Export Plug-In . SVG Version: 6.00 Build 0)  -->
<svg version="1.1" id="Capa_1" xmlns="http://www.w3.org/2000/svg" xmlns:xlink="http://www.w3.org/1999/xlink" x="0px" y="0px"
	 viewBox="0 0 403 403" style="enable-background:new 0 0 403 403;" xml:space="preserve">
<g>
	<g id="Dibujo_39_">
		<g>
			<path d="M259.466,102.13c6.095,0,11.041-4.946,11.041-11.041V69.007c0-6.095-4.946-11.041-11.041-11.041
				c-6.1,0-11.041,4.946-11.041,11.041v22.082C248.425,97.184,253.366,102.13,259.466,102.13z"/>
			<path d="M391.959,190.459h-22.082c-6.1,0-11.041,4.946-11.041,11.041s4.941,11.041,11.041,11.041h22.082
				c6.095,0,11.041-4.946,11.041-11.041S398.054,190.459,391.959,190.459z"/>
			<path d="M337.543,134.464c2.827,0,5.648-1.077,7.806-3.235l15.612-15.612c4.312-4.312,4.312-11.301,0-15.612
				c-4.312-4.312-11.301-4.312-15.612,0l-15.612,15.612c-4.312,4.312-4.312,11.301,0,15.612
				C331.89,133.387,334.716,134.464,337.543,134.464z"/>
			<path d="M173.583,131.229c2.159,2.159,4.98,3.235,7.806,3.235s5.653-1.077,7.806-3.235c4.312-4.312,4.312-11.301,0-15.612
				l-15.612-15.612c-4.312-4.312-11.301-4.312-15.612,0c-4.312,4.312-4.312,11.301,0,15.612L173.583,131.229z"/>
			<path d="M60.726,212.541h165.616c6.095,0,11.041-4.946,11.041-11.041s-4.946-11.041-11.041-11.041H60.726
				c-6.1,0-11.041,4.946-11.041,11.041S54.626,212.541,60.726,212.541z"/>
			<path d="M27.597,245.664h132.499c6.095,0,11.041-4.946,11.041-11.041c0-6.095-4.946-11.041-11.041-11.041H27.597
				c-6.1,0-11.041,4.946-11.041,11.041C16.556,240.718,21.497,245.664,27.597,245.664z"/>
			<path d="M342.274,256.705H11.041c-6.1,0-11.041,4.946-11.041,11.041c0,6.095,4.941,11.041,11.041,11.041h331.233
				c6.095,0,11.041-4.946,11.041-11.041C353.315,261.652,348.369,256.705,342.274,256.705z"/>
			<path d="M342.274,289.829H27.603c-6.1,0-11.041,4.946-11.041,11.041c0,6.095,4.941,11.041,11.041,11.041h314.671
				c6.095,0,11.041-4.946,11.041-11.041C353.315,294.775,348.369,289.829,342.274,289.829z"/>
			<path d="M126.973,322.952l-66.247-0.006c-6.1,0-11.041,4.946-11.041,11.041s4.941,11.041,11.041,11.041l66.247,0.006
				c6.095,0,11.041-4.946,11.041-11.041S133.067,322.952,126.973,322.952z"/>
			<path d="M309.151,322.947l-149.055,0.006c-6.1,0-11.041,4.946-11.041,11.041s4.941,11.041,11.041,11.041l149.055-0.006
				c6.095,0,11.041-4.946,11.041-11.041S315.245,322.947,309.151,322.947z"/>
			<path d="M126.973,179.418h75.096c3.942,0,7.58-2.098,9.556-5.504c9.865-17.036,28.199-27.619,47.841-27.619
				c30.44,0,55.205,24.765,55.205,55.205c0,7.69-1.601,15.275-4.566,22.082H193.219c-6.1,0-11.041,4.946-11.041,11.041
				c0,6.095,4.941,11.041,11.041,11.041h123.627c3.759,0,7.254-1.91,9.291-5.073c0.099-0.149,0.293-0.458,0.381-0.618
				c6.691-11.659,10.235-24.958,10.235-38.473c0-42.619-34.669-77.288-77.288-77.288c-25.306,0-49.061,12.543-63.437,33.123h-69.057
				c-6.1,0-11.041,4.946-11.041,11.041C115.932,174.471,120.872,179.418,126.973,179.418z"/>
		</g>
	</g>
</g>
<g>
</g>
<g>
</g>
<g>
</g>
<g>
</g>
<g>
</g>
<g>
</g>
<g>
</g>
<g>
</g>
<g>
</g>
<g>
</g>
<g>
</g>
<g>
</g>
<g>
</g>
<g>
</g>
<g>
</g>
</svg>
