<?xml version="1.0" encoding="iso-8859-1"?>
<!-- Generator: Adobe Illustrator 19.0.0, SVG Export Plug-In . SVG Version: 6.00 Build 0)  -->
<svg version="1.1" id="Capa_1" xmlns="http://www.w3.org/2000/svg" xmlns:xlink="http://www.w3.org/1999/xlink" x="0px" y="0px"
	 viewBox="0 0 320.192 320.192" style="enable-background:new 0 0 320.192 320.192;" xml:space="preserve">
<g>
	<g id="Dibujo_18_">
		<path d="M160.096,276.027c-6.1,0-11.041,4.946-11.041,11.041v22.082c0,6.095,4.941,11.041,11.041,11.041
			c6.095,0,11.041-4.946,11.041-11.041v-22.082C171.137,280.974,166.191,276.027,160.096,276.027z M110.411,242.904
			c-6.1,0-11.041,4.946-11.041,11.041v22.082c0,6.095,4.941,11.041,11.041,11.041c6.095,0,11.041-4.946,11.041-11.041v-22.082
			C121.452,247.851,116.506,242.904,110.411,242.904z M209.781,242.904c-6.1,0-11.041,4.946-11.041,11.041v22.082
			c0,6.095,4.941,11.041,11.041,11.041c6.095,0,11.041-4.946,11.041-11.041v-22.082
			C220.822,247.851,215.876,242.904,209.781,242.904z M259.466,66.247c-2.804,0-6.139,0.436-9.324,1.016
			C238.587,27.669,202.4,0,160.096,0c-42.309,0-78.497,27.669-90.051,67.262c-3.18-0.58-6.52-1.016-9.319-1.016
			C27.244,66.247,0,93.49,0,126.973s27.244,60.726,60.726,60.726H99.37v22.082c0,6.095,4.941,11.041,11.041,11.041
			c6.095,0,11.041-4.946,11.041-11.041v-22.082h77.288v22.082c0,6.095,4.941,11.041,11.041,11.041
			c6.095,0,11.041-4.946,11.041-11.041v-22.082h38.644c33.482,0,60.726-27.244,60.726-60.726S292.948,66.247,259.466,66.247z
			 M259.466,165.616H60.726c-21.304,0-38.644-17.34-38.644-38.644s17.34-38.644,38.644-38.644c1.529,0,3.991,0.375,6.586,0.894
			V99.37c0,6.095,4.941,11.041,11.041,11.041s11.041-4.946,11.041-11.041V81.599c5.924-34.52,35.53-59.517,70.702-59.517
			c35.166,0,64.773,24.997,70.702,59.523V99.37c0,6.095,4.946,11.041,11.041,11.041s11.041-4.946,11.041-11.041V89.229
			c2.595-0.519,5.073-0.9,6.586-0.9c21.304,0,38.644,17.34,38.644,38.644S280.77,165.616,259.466,165.616z M160.096,209.781
			c-6.1,0-11.041,4.946-11.041,11.041v22.082c0,6.095,4.941,11.041,11.041,11.041c6.095,0,11.041-4.946,11.041-11.041v-22.082
			C171.137,214.727,166.191,209.781,160.096,209.781z"/>
	</g>
</g>
<g>
</g>
<g>
</g>
<g>
</g>
<g>
</g>
<g>
</g>
<g>
</g>
<g>
</g>
<g>
</g>
<g>
</g>
<g>
</g>
<g>
</g>
<g>
</g>
<g>
</g>
<g>
</g>
<g>
</g>
</svg>
