<?xml version="1.0" encoding="iso-8859-1"?>
<!-- Generator: Adobe Illustrator 19.0.0, SVG Export Plug-In . SVG Version: 6.00 Build 0)  -->
<svg version="1.1" id="Capa_1" xmlns="http://www.w3.org/2000/svg" xmlns:xlink="http://www.w3.org/1999/xlink" x="0px" y="0px"
	 viewBox="0 0 353.315 353.315" style="enable-background:new 0 0 353.315 353.315;" xml:space="preserve">
<g>
	<g id="Dibujo_67_">
		<path d="M325.587,249.91l-34.294-19.802l19.515-5.228c5.89-1.579,9.385-7.635,7.806-13.52c-1.573-5.885-7.64-9.413-13.52-7.806
			l-40.841,10.942L233.93,196.99l36.066-9.666c4.554-1.22,7.834-5.195,8.159-9.904c0.326-4.704-2.374-9.092-6.719-10.925
			l-31.815-13.448l24.638-14.226l40.83,10.936c0.961,0.259,1.921,0.381,2.865,0.381c4.88,0,9.335-3.257,10.66-8.187
			c1.579-5.89-1.921-11.946-7.806-13.52l-19.499-5.222l34.288-19.797c5.283-3.053,7.088-9.799,4.047-15.082
			c-3.058-5.283-9.81-7.094-15.088-4.041l-34.283,19.791l5.217-19.488c1.579-5.89-1.921-11.946-7.806-13.52
			c-5.929-1.601-11.941,1.921-13.52,7.806l-10.931,40.819l-24.638,14.226l4.256-34.266c0.552-4.405-1.59-8.706-5.432-10.925
			c-3.837-2.208-8.645-1.916-12.178,0.756l-27.536,20.818V81.864l29.877-29.877c4.312-4.312,4.312-11.301,0-15.612
			c-4.312-4.312-11.301-4.312-15.612,0L187.706,50.64V11.041C187.706,4.946,182.76,0,176.665,0c-6.1,0-11.041,4.946-11.041,11.041
			v39.604l-14.282-14.287c-4.312-4.312-11.301-4.312-15.612,0c-4.312,4.306-4.312,11.301,0,15.612l29.894,29.899v28.431
			l-27.553-20.851c-3.765-2.849-8.916-2.987-12.824-0.353c-3.914,2.633-5.725,7.464-4.499,12.018l9.672,36.104l-30.324-17.506
			l-10.947-40.83c-1.573-5.885-7.635-9.401-13.52-7.806c-5.89,1.579-9.385,7.635-7.806,13.52l5.222,19.493L38.756,84.293
			c-5.294-3.053-12.035-1.242-15.082,4.041c-3.047,5.283-1.242,12.035,4.041,15.082l34.283,19.791L42.51,128.43
			c-5.89,1.579-9.385,7.635-7.806,13.52c1.319,4.935,5.78,8.187,10.66,8.187c0.944-0.006,1.91-0.121,2.865-0.381l40.819-10.936
			l30.319,17.506l-36.044,9.661c-4.554,1.22-7.834,5.195-8.154,9.904c-0.326,4.704,2.374,9.092,6.719,10.925l31.798,13.448
			L89.043,214.49L48.24,203.554c-5.879-1.595-11.946,1.921-13.52,7.806c-1.579,5.885,1.916,11.941,7.806,13.52l19.471,5.222
			l-34.272,19.786c-5.283,3.053-7.088,9.799-4.041,15.082c2.048,3.544,5.758,5.521,9.573,5.521c1.871,0,3.776-0.475,5.51-1.479
			l34.299-19.802l-5.228,19.515c-1.579,5.885,1.916,11.941,7.806,13.52c0.955,0.259,1.921,0.381,2.86,0.381
			c4.875,0,9.335-3.257,10.66-8.187l10.942-40.841l24.627-14.215l-4.256,34.272c-0.552,4.4,1.59,8.7,5.432,10.925
			c3.842,2.208,8.645,1.916,12.178-0.756l27.531-20.818v28.447l-29.894,29.894c-4.312,4.312-4.312,11.301,0,15.612
			c4.312,4.312,11.301,4.312,15.612,0l14.282-14.282v39.599c0,6.095,4.941,11.041,11.041,11.041c6.095,0,11.041-4.946,11.041-11.041
			v-39.588l14.271,14.271c2.159,2.159,4.98,3.235,7.806,3.235c2.827,0,5.648-1.077,7.806-3.235c4.312-4.312,4.312-11.301,0-15.612
			l-29.883-29.883V243.02l27.57,20.851c1.96,1.485,4.306,2.236,6.658,2.236c2.153,0,4.3-0.624,6.166-1.882
			c3.914-2.639,5.719-7.469,4.494-12.024l-9.683-36.077l30.33,17.511l10.925,40.808c1.319,4.935,5.78,8.187,10.66,8.187
			c0.944,0,1.905-0.121,2.865-0.381c5.885-1.573,9.385-7.629,7.806-13.52l-5.211-19.477l34.272,19.786
			c1.745,1.005,3.638,1.479,5.509,1.479c3.815,0,7.525-1.976,9.573-5.521C332.681,259.709,330.876,252.957,325.587,249.91z
			 M233.229,174.311l-26.344,7.061l-8.165-4.715l16.932-9.777L233.229,174.311z M207.713,122.843l-3.097,24.909l-16.92,9.771
			v-19.537L207.713,122.843z M150.382,126.47l15.231,11.521v19.554l-8.17-4.715L150.382,126.47z M120.057,179.004l26.328-7.055
			l8.159,4.709l-16.92,9.777L120.057,179.004z M145.579,230.466l3.092-24.914l16.948-9.782v19.548L145.579,230.466z M202.926,226.85
			l-15.226-11.51v-19.543l8.154,4.715L202.926,226.85z"/>
	</g>
</g>
<g>
</g>
<g>
</g>
<g>
</g>
<g>
</g>
<g>
</g>
<g>
</g>
<g>
</g>
<g>
</g>
<g>
</g>
<g>
</g>
<g>
</g>
<g>
</g>
<g>
</g>
<g>
</g>
<g>
</g>
</svg>
