<?xml version="1.0" encoding="iso-8859-1"?>
<!-- Generator: Adobe Illustrator 19.0.0, SVG Export Plug-In . SVG Version: 6.00 Build 0)  -->
<svg version="1.1" id="Capa_1" xmlns="http://www.w3.org/2000/svg" xmlns:xlink="http://www.w3.org/1999/xlink" x="0px" y="0px"
	 viewBox="0 0 287.074 287.074" style="enable-background:new 0 0 287.074 287.074;" xml:space="preserve">
<g>
	<g id="Dibujo_56_">
		<g>
			<path d="M176.663,132.496L11.041,132.49C4.946,132.49,0,137.437,0,143.531c0,6.095,4.946,11.041,11.041,11.041l165.622,0.006
				c21.304,0,38.644,17.34,38.644,38.644s-17.34,38.644-38.644,38.644c-6.1,0-11.041,4.946-11.041,11.041
				c0,6.095,4.941,11.041,11.041,11.041c33.482,0,60.726-27.244,60.726-60.726S210.145,132.496,176.663,132.496z"/>
			<path d="M143.534,165.619H11.047c-6.095,0-11.041,4.946-11.041,11.041s4.946,11.041,11.041,11.041h132.488
				c3.047,0,5.521,2.473,5.521,5.521s-2.473,5.521-5.521,5.521c-6.1,0-11.041,4.946-11.041,11.041
				c0,6.095,4.941,11.041,11.041,11.041c15.22,0,27.603-12.383,27.603-27.603S158.754,165.619,143.534,165.619z"/>
			<path d="M259.471,88.332c-6.095,0-11.041,4.946-11.041,11.041c0,6.095,4.946,11.041,11.041,11.041
				c3.047,0,5.521,2.473,5.521,5.521s-2.473,5.521-5.521,5.521h-22.082c-6.1,0-11.041,4.946-11.041,11.041
				c0,6.095,4.941,11.041,11.041,11.041h22.082c15.22,0,27.603-12.383,27.603-27.603S274.691,88.332,259.471,88.332z"/>
			<path d="M11.041,121.449l182.184,0.006c24.351,0,44.164-19.813,44.164-44.164s-19.813-44.164-44.164-44.164
				S149.06,52.939,149.06,77.29c0,6.095,4.941,11.041,11.041,11.041c6.095,0,11.041-4.946,11.041-11.041
				c0-12.178,9.904-22.082,22.082-22.082c12.178,0,22.082,9.904,22.082,22.082s-9.904,22.082-22.082,22.082L11.041,99.367
				C4.946,99.367,0,104.314,0,110.408C0,116.503,4.946,121.449,11.041,121.449z"/>
		</g>
	</g>
</g>
<g>
</g>
<g>
</g>
<g>
</g>
<g>
</g>
<g>
</g>
<g>
</g>
<g>
</g>
<g>
</g>
<g>
</g>
<g>
</g>
<g>
</g>
<g>
</g>
<g>
</g>
<g>
</g>
<g>
</g>
</svg>
